<?xml version="1.0" standalone="no"?>
<!DOCTYPE svg PUBLIC "-//W3C//DTD SVG 20010904//EN"
 "http://www.w3.org/TR/2001/REC-SVG-20010904/DTD/svg10.dtd">
<svg version="1.0" xmlns="http://www.w3.org/2000/svg"
 width="881.000000pt" height="881.000000pt" viewBox="0 0 881.000000 881.000000"
 preserveAspectRatio="xMidYMid meet">
<metadata>
Created by potrace 1.16, written by Peter Selinger 2001-2019
</metadata>
<g transform="translate(0.000000,881.000000) scale(0.100000,-0.100000)"
fill="#000000" stroke="none">
<path d="M0 4405 l0 -4405 4405 0 4405 0 0 4405 0 4405 -4405 0 -4405 0 0
-4405z m3737 4030 c27 -8 57 -23 66 -33 17 -19 40 -80 82 -227 15 -49 33 -110
41 -135 7 -25 25 -85 40 -135 36 -126 62 -208 93 -294 l26 -75 105 5 c246 10
577 2 672 -16 249 -49 512 -243 649 -480 54 -92 110 -230 126 -309 19 -94 39
-126 88 -143 48 -17 96 -61 124 -116 18 -35 22 -62 24 -162 2 -109 0 -123 -21
-156 -30 -49 -107 -106 -135 -101 -22 5 -32 -90 -48 -453 -4 -115 -13 -248
-18 -295 -5 -47 -17 -213 -26 -370 -9 -157 -20 -337 -25 -400 -5 -63 -10 -155
-10 -205 0 -168 -31 -380 -70 -469 -20 -47 -109 -145 -165 -181 -40 -26 -135
-75 -135 -69 0 2 -18 -5 -40 -16 -21 -11 -44 -20 -49 -20 -5 0 -22 -5 -38 -11
-15 -6 -30 -11 -33 -11 -3 0 -15 -4 -28 -9 -13 -5 -36 -11 -52 -14 -15 -3 -55
-12 -87 -20 -32 -8 -76 -17 -98 -20 -22 -2 -74 -11 -115 -19 -41 -8 -124 -17
-185 -20 -60 -4 -130 -8 -155 -10 -67 -7 -242 -8 -270 -2 -14 3 -70 8 -125 11
-55 3 -109 8 -120 10 -11 2 -60 11 -110 20 -49 9 -97 20 -106 25 -9 5 -36 14
-60 20 -63 17 -169 81 -216 133 -23 25 -44 42 -47 39 -3 -3 -6 3 -6 12 0 10
-9 31 -20 46 -20 28 -54 149 -79 280 -7 36 -15 74 -18 85 -2 11 -6 34 -9 50
-4 24 -16 69 -29 115 -1 3 -5 23 -9 45 -4 22 -10 47 -13 55 -8 20 -8 18 -18
75 -5 28 -9 52 -10 55 -1 3 -7 32 -14 65 -7 33 -16 64 -19 70 -3 5 -7 18 -9
30 -8 59 -11 74 -24 115 -7 25 -14 56 -15 70 -1 14 -3 25 -4 25 -1 0 -3 9 -5
19 -3 16 -13 55 -20 76 -1 3 -5 23 -9 45 -4 22 -17 83 -29 135 -11 52 -22 102
-23 110 -11 65 -17 87 -25 96 -5 7 -9 16 -7 20 3 13 -13 107 -20 119 -8 12
-12 29 -18 80 -3 22 -15 72 -26 110 -19 65 -25 90 -27 107 -1 4 -21 10 -46 13
-24 4 -50 13 -56 21 -6 8 -17 14 -23 14 -34 1 -85 94 -91 163 -2 25 -6 51 -10
56 -12 21 -7 111 11 158 21 58 47 89 96 114 43 22 47 32 49 124 1 39 5 75 9
80 5 6 8 13 8 18 0 7 12 87 18 113 30 152 130 342 244 469 25 27 55 58 68 68
12 10 28 24 35 30 7 7 45 34 85 61 81 54 182 98 264 115 31 7 63 18 73 25 18
13 18 17 -1 81 -2 6 -5 22 -8 36 -3 14 -13 45 -21 69 -8 23 -15 51 -15 61 0
11 -4 19 -8 19 -5 0 -8 10 -7 22 1 13 -6 36 -16 53 -9 16 -15 39 -13 50 1 11
-4 30 -12 43 -8 12 -12 22 -9 22 2 0 0 11 -5 25 -10 25 -18 62 -24 100 -1 11
-7 29 -13 40 -17 33 -40 138 -38 176 1 20 13 50 25 67 29 39 145 97 231 116
85 19 97 19 156 1z m-1327 -5166 c59 -29 75 -46 105 -112 21 -48 25 -73 25
-152 0 -109 -10 -100 123 -109 43 -2 84 -9 90 -14 7 -5 30 -15 52 -22 53 -17
130 -72 183 -128 23 -25 42 -49 42 -53 0 -3 11 -19 25 -35 14 -16 25 -35 25
-41 0 -7 11 -13 25 -13 14 0 25 4 25 8 0 4 17 35 39 68 62 96 146 163 259 207
48 18 76 22 177 22 75 -1 128 -6 142 -13 19 -10 33 -10 79 4 102 29 193 3 252
-74 l27 -35 0 -391 c0 -391 0 -391 -23 -428 -35 -56 -114 -90 -190 -83 -31 3
-67 11 -79 17 -18 9 -41 7 -111 -10 -112 -28 -129 -28 -236 4 -80 23 -168 70
-220 117 -11 9 -23 17 -28 17 -4 0 -7 3 -6 8 1 4 -14 32 -34 62 -19 30 -38 64
-42 76 -10 31 -52 20 -65 -16 -17 -51 -151 -189 -214 -222 -131 -66 -245 -80
-355 -43 -52 17 -54 17 -108 -4 -61 -23 -94 -26 -124 -11 -11 6 -29 15 -40 20
-11 5 -25 10 -31 10 -11 0 -39 25 -39 35 0 3 -11 21 -25 39 -18 24 -26 50 -31
97 -3 35 -8 75 -11 89 -5 24 -6 23 -18 -12 -15 -41 -26 -55 -105 -137 -45 -46
-142 -114 -169 -117 -3 0 -30 -8 -60 -17 -82 -25 -210 -22 -293 7 -36 13 -79
32 -95 43 -15 10 -45 27 -65 38 -20 10 -35 22 -33 26 3 3 -7 15 -21 25 -14 11
-34 36 -45 57 -11 21 -26 40 -34 43 -7 3 -16 23 -20 45 -6 36 -25 55 -25 27
-1 -29 -63 -137 -109 -189 -62 -71 -172 -128 -264 -138 -34 -4 -157 -7 -272
-6 l-210 0 -48 28 c-35 21 -54 41 -71 77 l-23 49 1 533 c1 512 2 535 21 572
47 92 115 116 329 116 218 -1 299 -20 392 -96 108 -87 190 -312 149 -409 -26
-63 -20 -97 25 -148 22 -25 40 -54 40 -65 0 -35 18 -34 25 0 4 18 16 41 26 51
11 10 19 26 19 36 0 24 51 95 109 151 47 45 149 110 173 110 7 0 27 8 43 17
45 24 235 24 295 0 128 -53 252 -141 279 -197 6 -14 20 -40 30 -59 18 -33 18
-34 25 -10 4 13 9 141 12 284 6 244 7 261 27 290 68 96 181 130 277 84z m2210
-279 c60 -30 116 -92 141 -159 32 -87 33 -106 10 -176 -24 -69 -19 -98 17
-109 21 -7 82 -78 104 -121 19 -37 42 -141 39 -175 -4 -40 -33 -133 -49 -160
-28 -45 -86 -101 -127 -122 -53 -28 -141 -51 -182 -49 -43 3 -98 3 -201 -1
-62 -2 -107 1 -110 7 -4 6 -8 179 -9 385 -2 461 -2 468 0 505 2 17 -1 40 -5
52 -4 12 -3 25 3 28 5 4 7 11 4 16 -4 5 -7 27 -9 49 -2 29 1 44 13 51 10 6 73
8 166 5 128 -4 156 -7 195 -26z m3218 -44 c2 -38 -1 -73 -7 -79 -7 -7 -285
-21 -371 -18 -8 0 -70 2 -137 3 -229 5 -109 17 195 19 l302 3 0 58 0 58 -310
0 -310 0 -1 -62 c0 -44 -3 -57 -9 -42 -11 27 -4 115 9 124 6 3 152 6 324 6
l312 -1 3 -69z m253 64 c18 -10 19 -23 19 -215 0 -152 3 -206 12 -212 7 -4
107 -8 221 -9 187 -1 209 0 217 16 5 9 9 102 9 206 0 104 0 197 0 207 1 14 11
17 70 17 58 0 71 -3 75 -17 3 -10 4 -254 2 -543 l-4 -525 -28 -2 c-21 -1 -23
0 -6 4 l22 4 0 530 0 529 -60 0 -60 0 0 -225 0 -225 -190 -2 -189 -3 37 -57
37 -58 152 0 152 0 3 -245 c2 -135 0 -245 -4 -245 -10 0 -9 -4 -9 252 1 147
-3 209 -11 214 -6 4 -73 8 -147 8 -139 1 -181 11 -181 41 0 8 -4 15 -10 15 -5
0 -10 -8 -10 -19 0 -25 -19 -39 -60 -43 l-35 -3 -3 -230 c-3 -247 -2 -246 -57
-244 l-30 1 30 7 30 6 3 242 2 242 49 3 50 3 -36 58 c-20 31 -42 57 -49 57
-11 0 -14 42 -14 220 l0 220 -60 0 -60 0 0 -525 0 -525 28 -1 c24 0 24 -1 7
-8 -11 -5 -27 -5 -37 0 -14 8 -16 38 -16 276 0 148 -1 284 -1 303 -1 19 -1 76
-1 125 0 50 0 152 -1 227 0 75 2 142 6 147 8 14 110 14 136 1z m-1310 -23
c160 -48 275 -160 349 -342 21 -52 24 -76 24 -180 0 -103 -3 -129 -24 -185
-37 -100 -68 -150 -135 -215 -55 -55 -169 -128 -205 -131 -8 -1 -44 -9 -80
-19 -66 -17 -152 -15 -189 4 -9 5 -37 12 -61 16 -25 4 -49 13 -53 21 -4 8 -15
14 -24 14 -8 0 -38 16 -64 35 -27 19 -53 35 -58 35 -4 0 -24 19 -42 42 -19 23
-40 47 -47 55 -7 7 -11 13 -8 13 4 0 -5 18 -18 39 -14 22 -28 52 -32 68 -4 15
-14 41 -22 57 -18 36 -22 274 -5 284 6 4 16 26 23 50 37 138 205 296 356 336
31 8 59 17 62 21 12 12 197 -2 253 -18z m-1177 -8 c128 -23 277 -132 347 -254
93 -159 95 -368 6 -532 -44 -81 -147 -181 -233 -226 -39 -20 -73 -34 -76 -32
-3 3 -25 -1 -49 -8 -48 -15 -135 -16 -214 -3 -43 7 -161 56 -190 78 -5 5 -31
24 -57 43 -26 20 -68 65 -93 100 -41 57 -51 77 -54 108 -1 4 -10 16 -22 28
-18 18 -21 33 -22 122 0 114 8 190 26 221 6 12 12 30 14 41 5 30 68 120 116
167 136 132 309 183 501 147z m1969 -161 c16 -12 17 -48 15 -453 l-3 -440 -68
-1 c-37 0 -70 3 -73 8 -11 17 -12 873 -1 886 5 7 32 12 61 12 29 0 60 -6 69
-12z"/>
<path d="M3539 8401 c-122 -39 -199 -101 -199 -160 0 -12 50 -195 110 -406 61
-210 110 -387 110 -393 0 -5 -28 -15 -62 -22 -195 -38 -336 -117 -479 -268
-178 -188 -271 -414 -286 -694 -6 -105 -6 -107 -32 -113 -43 -11 -92 -55 -114
-103 -17 -40 -19 -58 -13 -136 3 -50 11 -108 16 -128 21 -74 102 -138 174
-138 31 0 35 -3 41 -32 14 -68 238 -1071 340 -1522 79 -354 112 -480 132 -519
33 -61 107 -137 167 -172 159 -93 481 -143 846 -132 294 10 534 45 756 112
292 88 452 217 493 395 12 53 75 985 117 1740 21 379 16 355 65 369 54 16 104
63 125 116 27 73 6 256 -38 318 -24 34 -87 67 -127 67 -27 0 -31 4 -36 38 -38
224 -140 439 -282 593 -116 125 -316 248 -463 284 -80 20 -535 31 -710 18 -70
-6 -117 -6 -121 0 -4 5 -55 170 -113 366 -155 514 -147 492 -186 519 -27 18
-46 22 -104 21 -39 0 -96 -8 -127 -18z m179 -83 c-11 -36 -216 -100 -262 -82
-24 9 -2 32 54 56 84 36 216 52 208 26z m126 -403 c52 -176 113 -381 136 -454
22 -74 38 -141 36 -148 -4 -11 -38 -13 -158 -11 l-152 3 -24 80 c-13 44 -45
154 -72 245 -47 159 -137 467 -146 502 -4 13 5 18 43 23 67 9 172 41 208 63
17 11 31 19 32 18 1 -1 45 -145 97 -321z m791 -496 l70 -1 -85 -24 c-90 -26
-320 -68 -431 -78 l-67 -6 -11 46 c-7 26 -10 49 -7 51 7 7 343 21 406 17 30
-2 87 -4 125 -5z m390 -78 c223 -112 381 -288 465 -520 33 -89 66 -229 57
-238 -3 -2 -113 -13 -244 -23 -131 -11 -263 -22 -295 -25 l-56 -7 26 -44 c33
-53 4 -52 395 -19 379 31 374 33 385 -131 2 -45 2 -94 -2 -108 -12 -47 -49
-56 -340 -82 -149 -13 -281 -24 -293 -24 -21 0 -23 -5 -23 -50 0 -41 3 -50 18
-50 9 0 116 9 237 20 121 10 221 17 223 16 1 -2 -20 -365 -48 -807 -83 -1329
-77 -1262 -124 -1344 -87 -148 -365 -260 -796 -321 -152 -21 -500 -29 -656
-15 -324 31 -483 91 -570 216 -41 60 -16 -40 -273 1105 -199 885 -214 951
-210 954 4 4 496 46 533 46 12 0 16 9 16 38 0 68 15 66 -321 38 -167 -14 -325
-26 -350 -26 -79 0 -107 53 -108 203 -1 51 3 62 27 87 24 24 39 29 103 34 41
4 211 18 378 31 168 14 305 26 307 28 11 13 44 90 41 94 -3 3 -161 -8 -351
-24 l-346 -28 0 71 c0 136 42 309 105 434 66 131 210 289 332 363 l61 37 89
-15 c317 -56 790 -37 1138 45 105 25 263 75 285 90 25 18 79 3 185 -49z
m-1425 -16 c0 -11 -11 -15 -42 -15 -44 0 -43 15 2 23 14 2 28 5 33 6 4 0 7 -6
7 -14z"/>
<path d="M4980 7003 c-127 -66 -94 -252 47 -269 77 -10 153 60 153 140 0 105
-110 176 -200 129z m99 -58 c31 -16 41 -33 41 -71 0 -38 -16 -61 -50 -73 -83
-28 -147 72 -85 134 28 29 54 31 94 10z"/>
<path d="M4151 6789 c-272 -45 -507 -255 -593 -529 -30 -98 -33 -308 -5 -410
57 -214 207 -393 412 -491 112 -55 203 -72 345 -66 201 8 343 70 485 212 151
151 225 328 225 535 0 254 -124 485 -334 625 -171 113 -349 155 -535 124z
m273 -109 c122 -31 209 -82 307 -180 141 -141 195 -282 187 -492 -5 -133 -27
-207 -93 -313 -124 -199 -322 -310 -550 -309 -179 1 -324 62 -450 188 -138
139 -195 277 -195 477 0 114 19 198 65 289 35 70 127 182 187 228 151 116 359
159 542 112z"/>
<path d="M4133 6611 c-150 -37 -310 -170 -379 -314 -50 -105 -68 -218 -54
-322 22 -150 85 -273 188 -365 66 -59 167 -114 248 -135 74 -19 212 -19 284 0
188 50 346 202 406 388 103 326 -98 672 -436 751 -84 20 -167 19 -257 -3z
m395 -206 c17 -14 33 -39 37 -55 7 -33 -15 -84 -44 -100 -29 -15 -83 -12 -108
5 -47 33 -37 131 16 160 38 21 66 18 99 -10z m-147 -213 c24 -16 50 -41 58
-56 13 -24 13 -29 -5 -47 -11 -11 -37 -22 -57 -26 -31 -5 -40 -1 -67 25 -34
34 -39 74 -14 110 20 29 31 28 85 -6z m283 -4 c8 -22 6 -32 -9 -48 -22 -24
-42 -25 -67 -3 -21 18 -23 36 -7 64 16 31 71 22 83 -13z"/>
<path d="M3353 5747 c-31 -5 -53 -15 -53 -22 0 -14 -22 -25 -48 -25 -10 1 -5
7 13 15 l30 14 -30 -6 c-16 -3 -64 -22 -105 -42 -72 -34 -75 -38 -78 -73 -2
-21 -1 -38 1 -38 2 0 36 16 76 35 39 19 75 35 80 35 4 0 16 9 26 20 10 11 21
17 26 15 4 -3 15 2 23 11 9 8 16 11 16 6 0 -5 19 -8 43 -7 23 2 63 3 88 4 l46
1 -11 35 c-10 33 -14 35 -51 34 -22 -1 -64 -6 -92 -12z m137 -37 c0 -5 -4 -10
-10 -10 -5 0 -10 5 -10 10 0 6 5 10 10 10 6 0 10 -4 10 -10z"/>
<path d="M5396 5632 c-2 -4 4 -8 14 -8 10 0 16 4 14 8 -3 4 -9 8 -14 8 -5 0
-11 -4 -14 -8z"/>
<path d="M5330 5595 c-25 -13 -41 -24 -37 -25 4 0 22 7 38 16 17 8 33 13 37
10 3 -3 -25 -19 -61 -36 -37 -17 -67 -35 -67 -41 0 -6 7 -8 16 -5 8 3 13 2 9
-3 -3 -5 8 -4 25 2 16 6 30 15 30 20 0 4 -5 5 -12 1 -7 -4 -8 -3 -4 5 6 9 11
9 21 1 9 -8 17 -7 28 4 8 8 17 12 21 9 3 -4 6 -1 6 6 0 7 5 9 10 6 14 -9 40
13 39 34 0 11 -3 8 -9 -7 -9 -22 -10 -22 -28 -5 -10 10 -17 21 -15 26 6 10 4
9 -47 -18z"/>
<path d="M5216 5544 c7 -3 10 -15 8 -27 -4 -21 -4 -21 5 -2 10 23 5 35 -12 34
-9 0 -9 -2 -1 -5z"/>
<path d="M5178 5533 c7 -3 16 -2 19 1 4 3 -2 6 -13 5 -11 0 -14 -3 -6 -6z"/>
<path d="M5026 5511 c-3 -4 6 -6 19 -3 14 2 25 6 25 8 0 8 -39 4 -44 -5z"/>
<path d="M4908 5493 c-36 -42 -33 -44 41 -42 57 2 71 5 71 18 0 14 2 14 10 1
8 -13 10 -12 10 3 0 9 -7 17 -15 17 -8 0 -15 5 -15 10 0 18 -86 12 -102 -7z"/>
<path d="M4995 4684 c-45 -23 -66 -45 -86 -89 -54 -117 29 -249 155 -249 188
0 254 236 92 335 -38 23 -119 25 -161 3z m187 -65 c21 -27 37 -109 22 -109
-14 1 -86 119 -79 131 11 16 36 6 57 -22z"/>
<path d="M3560 4649 c-83 -34 -132 -149 -99 -236 32 -85 148 -135 236 -102 38
14 83 57 99 96 36 84 0 194 -76 233 -42 22 -118 26 -160 9z m131 -29 c17 -10
27 -40 13 -40 -28 0 -94 25 -94 36 0 17 52 19 81 4z"/>
<path d="M4547 4565 c-108 -38 -152 -155 -96 -255 31 -57 87 -90 152 -90 162
0 242 187 128 301 -33 33 -92 60 -131 59 -8 -1 -32 -7 -53 -15z m153 -55 c33
-33 54 -110 31 -110 -14 0 -92 111 -85 121 9 15 33 10 54 -11z"/>
<path d="M4015 4516 c-17 -7 -43 -28 -58 -45 -97 -116 -19 -291 130 -291 84 0
148 45 173 123 44 138 -110 272 -245 213z m-5 -73 c0 -31 -26 -107 -38 -111
-26 -8 -26 84 0 115 15 19 38 16 38 -4z"/>
<path d="M4974 4241 c-62 -38 -102 -119 -88 -178 31 -134 171 -194 282 -120
102 67 95 229 -14 293 -52 30 -134 33 -180 5z m60 -20 c9 -14 -96 -133 -107
-122 -16 16 2 62 38 98 33 33 58 42 69 24z"/>
<path d="M3650 4188 c-53 -27 -78 -60 -91 -117 -27 -120 66 -229 187 -219 124
10 201 146 145 256 -23 46 -46 67 -94 87 -51 21 -95 19 -147 -7z m70 -32 c0
-8 -16 -24 -36 -36 -19 -12 -42 -33 -51 -46 -13 -21 -43 -34 -43 -19 0 21 32
75 55 93 31 25 75 29 75 8z"/>
<path d="M4577 4155 c-52 -18 -83 -49 -103 -101 -69 -181 147 -328 286 -195
97 92 63 248 -65 298 -40 15 -72 15 -118 -2z"/>
<path d="M4122 4063 c-132 -65 -131 -258 3 -323 154 -74 317 102 233 252 -44
78 -155 111 -236 71z"/>
<path d="M2260 3259 c-51 -16 -88 -46 -110 -89 -19 -38 -20 -61 -20 -596 0
-543 1 -557 21 -593 44 -79 157 -114 253 -77 38 14 47 15 83 2 108 -38 220
-29 342 29 129 62 230 191 264 339 l13 57 17 -72 c41 -171 168 -305 336 -355
78 -24 201 -22 269 4 l53 20 46 -20 c88 -39 197 -8 245 70 23 36 23 43 26 365
2 219 -1 347 -8 384 -26 125 -150 187 -267 133 -40 -18 -46 -18 -80 -3 -51 21
-176 28 -246 14 -189 -40 -344 -198 -380 -390 l-11 -59 -17 69 c-41 160 -129
271 -265 336 -77 37 -81 38 -197 38 l-118 0 6 35 c3 19 2 83 -3 142 -7 88 -13
113 -33 142 -44 65 -141 98 -219 75z m115 -73 c66 -28 75 -59 75 -250 l0 -168
23 7 c105 33 143 37 211 26 89 -15 172 -59 236 -127 198 -209 133 -558 -127
-686 -62 -30 -75 -33 -163 -33 -78 0 -104 4 -147 23 l-51 24 -29 -21 c-67 -49
-161 -30 -195 39 -16 32 -18 80 -18 560 0 400 3 531 13 550 17 33 74 70 109
70 16 0 44 -6 63 -14z m1368 -404 l47 -21 37 24 c53 37 122 35 165 -4 l33 -29
3 -356 c2 -245 -1 -362 -8 -377 -32 -60 -136 -78 -189 -33 l-31 26 -43 -21
c-114 -54 -228 -53 -344 4 -259 128 -321 470 -121 681 96 102 176 135 313 131
65 -2 103 -9 138 -25z"/>
<path d="M2544 2531 c-76 -34 -117 -117 -95 -191 34 -113 149 -162 247 -105
46 27 84 90 84 141 -1 38 -31 103 -61 131 -50 46 -109 54 -175 24z m115 -65
c49 -26 66 -99 35 -145 -9 -13 -32 -29 -50 -37 -29 -12 -39 -12 -68 0 -34 14
-66 59 -66 91 0 10 7 32 16 50 24 52 79 69 133 41z"/>
<path d="M3540 2539 c-63 -25 -100 -85 -100 -162 0 -69 38 -126 99 -151 53
-21 86 -20 137 3 101 46 129 175 57 262 -45 53 -128 74 -193 48z m106 -64 c41
-17 69 -71 59 -116 -14 -61 -89 -95 -149 -68 -24 11 -56 62 -56 89 0 26 34 82
59 95 33 18 44 18 87 0z"/>
<path d="M256 3195 c-50 -18 -92 -59 -111 -109 -14 -36 -15 -111 -13 -566 l3
-525 23 -37 c13 -20 40 -47 60 -60 35 -22 48 -23 246 -26 229 -4 310 5 393 43
63 28 145 103 180 163 33 55 63 153 64 205 l0 42 18 -61 c69 -240 251 -384
485 -384 138 0 242 39 336 127 112 103 162 217 163 368 3 379 -394 617 -732
440 -147 -77 -260 -255 -261 -407 0 -47 -16 -50 -24 -5 -11 55 -52 131 -95
177 l-41 44 17 45 c13 33 18 74 18 141 0 86 -3 102 -32 162 -56 120 -157 201
-281 227 -77 16 -367 14 -416 -4z m476 -88 c72 -35 140 -110 168 -185 32 -83
25 -187 -17 -265 l-31 -57 34 -21 c129 -80 181 -279 112 -431 -36 -78 -89
-132 -166 -170 l-66 -33 -247 -3 -247 -4 -33 30 -34 30 -3 523 c-2 389 1 531
9 552 7 16 26 38 43 49 28 17 48 19 226 16 191 -3 196 -4 252 -31z m960 -308
c250 -53 404 -309 329 -548 -51 -163 -179 -274 -349 -302 -181 -30 -371 69
-452 235 -81 168 -54 345 75 484 106 115 250 162 397 131z"/>
<path d="M468 2804 c-3 -49 -3 -92 -1 -96 2 -5 36 -8 74 -8 63 0 72 3 94 26
33 36 34 93 1 131 -21 24 -32 28 -93 31 l-70 4 -5 -88z m117 -14 c0 -20 -6
-26 -27 -28 -25 -3 -28 0 -28 28 0 28 3 31 28 28 21 -2 27 -8 27 -28z"/>
<path d="M469 2433 c-2 -22 3 -229 6 -232 2 -2 42 -6 88 -8 69 -5 91 -2 129
14 99 45 101 178 2 219 -35 15 -223 20 -225 7z m211 -83 c46 -46 8 -90 -80
-90 -65 0 -62 -4 -62 70 0 17 1 32 1 35 1 3 28 5 61 5 47 0 64 -4 80 -20z"/>
<path d="M1557 2536 c-73 -27 -117 -90 -117 -166 0 -51 18 -88 64 -128 144
-126 351 69 243 229 -42 62 -122 90 -190 65z m119 -90 c24 -24 34 -43 34 -65
0 -97 -105 -147 -170 -82 -39 38 -46 71 -25 116 34 71 107 85 161 31z"/>
<path d="M4270 2471 l0 -531 178 0 c199 0 255 11 330 62 123 85 166 256 100
399 -28 61 -85 125 -133 149 -17 8 -31 15 -33 16 -1 1 9 23 23 49 51 97 25
239 -59 313 -64 56 -96 65 -258 70 l-148 4 0 -531z m265 399 c25 -6 52 -22 73
-44 27 -31 32 -43 32 -86 0 -103 -57 -149 -182 -150 l-68 0 0 145 0 145 53 0
c28 0 70 -5 92 -10z m130 -419 c49 -22 99 -77 115 -127 30 -89 -15 -199 -100
-241 -39 -20 -60 -23 -167 -23 l-123 0 0 205 0 205 118 0 c91 0 126 -4 157
-19z"/>
<path d="M4418 2854 c-16 -5 -18 -19 -18 -107 0 -56 4 -108 9 -116 7 -11 26
-13 80 -9 66 5 74 8 106 42 46 49 44 99 -9 153 -32 33 -41 37 -93 39 -32 2
-66 0 -75 -2z"/>
<path d="M4407 2454 c-9 -9 -9 -330 -1 -361 5 -19 9 -21 26 -12 14 8 23 8 31
0 31 -31 204 4 253 50 31 30 71 130 59 149 -3 5 -8 20 -10 32 -3 12 -8 24 -12
27 -5 3 -9 12 -10 18 -4 18 -45 63 -57 63 -5 0 -17 6 -25 14 -17 16 -241 33
-254 20z"/>
<path d="M6530 2983 c-149 -23 -309 -143 -380 -283 -150 -296 1 -652 319 -750
42 -14 92 -20 150 -20 153 0 258 44 366 154 114 115 155 216 155 379 0 326
-288 572 -610 520z m253 -145 c79 -37 160 -116 200 -197 30 -62 32 -71 32
-181 0 -114 -1 -117 -38 -192 -78 -159 -252 -251 -417 -220 -302 56 -447 391
-279 645 78 118 201 179 354 174 72 -2 101 -8 148 -29z"/>
<path d="M6551 2850 c-18 -4 -43 -12 -55 -18 -11 -5 -37 -16 -56 -23 -50 -19
-147 -121 -179 -188 -23 -49 -26 -68 -26 -161 0 -98 2 -109 32 -170 18 -36 40
-74 50 -85 77 -86 203 -145 310 -145 64 0 90 8 183 53 70 35 159 131 163 176
1 12 4 21 8 21 19 0 28 144 15 242 -10 75 -64 161 -140 223 -72 59 -219 95
-305 75z"/>
<path d="M5321 2944 c-185 -63 -307 -203 -348 -399 -85 -416 380 -755 759
-553 315 168 368 609 101 848 -138 124 -336 164 -512 104z m239 -92 c11 -12
63 -202 58 -208 -5 -4 -224 110 -302 157 l-29 18 39 16 c74 31 214 41 234 17z
m98 -26 c64 -32 149 -100 157 -125 6 -19 -73 -192 -94 -206 -6 -3 -17 18 -26
47 -54 175 -92 308 -89 308 3 0 26 -11 52 -24z m-313 -82 c47 -25 87 -50 90
-54 3 -5 -32 -20 -77 -34 -156 -47 -263 -75 -267 -70 -17 17 125 204 155 204
8 0 52 -21 99 -46z m274 -134 c16 0 25 -17 48 -88 l29 -88 -28 -60 c-15 -32
-28 -64 -28 -69 0 -6 -39 -23 -86 -38 l-86 -27 -73 36 -72 36 -26 77 -26 78
30 58 c16 32 29 64 29 71 0 7 28 22 63 33 34 12 68 25 76 30 10 7 33 0 73 -20
31 -16 66 -29 77 -29z m271 -77 c6 -32 10 -80 8 -108 l-3 -50 -103 -34 c-57
-18 -105 -31 -108 -28 -6 5 48 117 124 256 l45 83 13 -31 c7 -17 18 -57 24
-88z m-686 -109 c-47 -85 -90 -152 -94 -147 -31 32 -55 243 -29 258 24 15 204
62 207 54 2 -5 -36 -79 -84 -165z m102 -187 c25 -93 44 -171 41 -173 -11 -11
-90 39 -149 95 -61 57 -62 59 -50 87 30 67 96 174 103 167 5 -5 29 -84 55
-176z m547 21 c-15 -29 -51 -77 -78 -106 l-51 -55 -106 59 c-59 32 -105 60
-103 63 12 11 360 107 363 100 2 -5 -9 -32 -25 -61z m-342 -85 c88 -48 159
-91 159 -95 0 -20 -177 -52 -236 -42 l-40 6 -22 86 c-12 48 -25 97 -28 110 -4
12 -3 22 1 22 4 0 79 -39 166 -87z"/>
<path d="M5430 2623 c-25 -8 -51 -16 -58 -19 -7 -2 -26 -32 -42 -67 -27 -61
-28 -65 -16 -123 7 -34 22 -70 33 -81 44 -44 152 -79 167 -54 3 5 23 12 43 15
62 11 73 16 73 34 0 10 11 38 24 63 22 41 24 51 14 83 -6 20 -15 36 -20 36 -4
0 -8 9 -8 21 0 27 -18 59 -33 59 -7 0 -33 11 -59 25 -53 28 -55 28 -118 8z"/>
<path d="M7450 2375 l0 -435 60 0 60 0 0 435 0 435 -60 0 -60 0 0 -435z"/>
</g>
</svg>
